<svg width="1076" height="951" viewBox="0 0 1076 951" fill="none" xmlns="http://www.w3.org/2000/svg">
<path d="M975.551 100H1025.55V900H975.551V950H175.551V900H125.551V100H175.551V50H975.551V100Z" fill="black"/>
<path d="M275.551 50L450.551 50V325H375.551V125H350.551V200H275.551V50Z" fill="white"/>
<path d="M450.551 50L275.551 50V200H350.551V125H375.551V325H450.551V50ZM500.551 375H325.551V250H225.551V0L500.551 0V375Z" fill="black"/>
<path d="M413 600H563V875H388V700H488V675H413V600ZM488 800V775H463V800H488Z" fill="white"/>
<path d="M838 600H1013V725H938V675H913V800H938V750H1013V875H838V600Z" fill="white"/>
<path d="M613 600H788V725H713V675H688V800H713V750H788V875H613V600Z" fill="white"/>
<path d="M1025.55 585.742H825.551V900.024H1025.55V757.166H939.833V814.307H911.269V671.448H939.833V728.601H1025.55V585.742ZM1075.55 950.024H775.551V535.742H1075.55V950.024Z" fill="black"/>
<path d="M775.551 50L950.551 50V125H850.551V150H950.551V325H775.551V50ZM875.551 250V225H850.551V250H875.551Z" fill="white"/>
<path d="M950.551 50L775.551 50V325H950.551V150H850.551V125H950.551V50ZM875.551 225V250H850.551V225H875.551ZM1000.55 375H725.551V0L1000.55 0V375Z" fill="black"/>
<path d="M525.551 50H700.551V325H525.551V50ZM625.551 250V125H600.551V250H625.551Z" fill="white"/>
<path d="M700.551 50H525.551V325H700.551V50ZM625.551 125V250H600.551V125H625.551ZM750.551 375H475.551V0L750.551 0V375Z" fill="black"/>
<path d="M62.8125 604.492L87.4332 608.833L83.0919 633.454L58.4712 629.113L62.8125 604.492Z" fill="black"/>
<path d="M83.0781 633.398L107.699 637.74L103.357 662.361L78.7368 658.019L83.0781 633.398Z" fill="black"/>
<path d="M103.391 662.406L128.011 666.748L123.67 691.369L99.0493 687.027L103.391 662.406Z" fill="black"/>
<path d="M132.344 642.094L156.964 646.435L152.623 671.056L128.002 666.715L132.344 642.094Z" fill="black"/>
<path d="M112.082 613.188L136.703 617.529L132.361 642.15L107.741 637.808L112.082 613.188Z" fill="black"/>
<path d="M141.035 592.875L165.656 597.216L161.315 621.837L136.694 617.496L141.035 592.875Z" fill="black"/>
<path d="M67.1602 579.883L91.7809 584.224L87.4395 608.845L62.8188 604.504L67.1602 579.883Z" fill="black"/>
<path d="M96.1641 559.57L120.785 563.912L116.443 588.533L91.8227 584.191L96.1641 559.57Z" fill="black"/>
<path d="M75.8516 530.664L100.472 535.005L96.1309 559.626L71.5102 555.285L75.8516 530.664Z" fill="black"/>
<path d="M55.5859 501.664L80.2066 506.005L75.8653 530.626L51.2446 526.285L55.5859 501.664Z" fill="black"/>
<path d="M35.2734 472.656L59.8941 476.998L55.5528 501.619L30.9321 497.277L35.2734 472.656Z" fill="black"/>
<path d="M64.2305 452.445L88.8512 456.787L84.5098 481.408L59.8891 477.066L64.2305 452.445Z" fill="black"/>
<path d="M93.2344 432.133L117.855 436.474L113.514 461.095L88.893 456.754L93.2344 432.133Z" fill="black"/>
<path d="M122.188 411.82L146.808 416.162L142.467 440.783L117.846 436.441L122.188 411.82Z" fill="black"/>
<path d="M151.145 391.602L175.765 395.943L171.424 420.564L146.803 416.223L151.145 391.602Z" fill="black"/>
<path d="M180.098 371.289L204.718 375.63L200.377 400.251L175.756 395.91L180.098 371.289Z" fill="black"/>
<path d="M209.055 350.977L258.296 359.659L253.955 384.28L204.713 375.598L209.055 350.977Z" fill="black"/>
<path d="M253.977 384.281L278.597 388.623L274.256 413.244L249.635 408.902L253.977 384.281Z" fill="black"/>
<path d="M274.238 413.281L298.859 417.623L290.176 466.864L265.556 462.523L274.238 413.281Z" fill="black"/>
<path d="M240.938 458.203L265.558 462.544L261.217 487.165L236.596 482.824L240.938 458.203Z" fill="black"/>
<path d="M211.984 478.516L236.605 482.857L232.264 507.478L207.643 503.137L211.984 478.516Z" fill="black"/>
<path d="M182.98 498.734L207.601 503.076L203.26 527.697L178.639 523.355L182.98 498.734Z" fill="black"/>
<path d="M154.023 519.047L178.644 523.388L174.303 548.009L149.682 543.668L154.023 519.047Z" fill="black"/>
<path d="M174.336 547.953L198.957 552.294L190.274 601.536L165.653 597.195L174.336 547.953Z" fill="black"/>
<path d="M127.995 666.737L103.375 662.396L107.716 637.776L132.337 642.117L127.995 666.737ZM169.968 572.596L169.98 572.598L165.639 597.218L141.019 592.877L136.68 617.485L112.06 613.144L107.716 637.776L83.0962 633.435L91.7786 584.194L116.399 588.536L120.74 563.915L96.1318 559.576L100.473 534.956L174.31 547.976L169.968 572.596ZM265.559 462.523L240.927 458.179L236.586 482.799L211.977 478.46L207.638 503.069L183.018 498.727L178.677 523.348L154.033 519.002L149.694 543.61L75.833 530.587L80.1721 505.979L55.5639 501.639L59.9051 477.019L84.5374 481.363L88.8786 456.742L113.487 461.081L117.826 436.473L142.458 440.817L146.799 416.196L269.9 437.902L265.559 462.523ZM249.613 408.915L274.234 413.256L269.892 437.876L171.412 420.511L175.753 395.891L200.373 400.232L204.714 375.612L253.955 384.295L249.613 408.915Z" fill="white"/>
<path d="M375.551 475H950.551V487.5H375.551V475Z" fill="black"/>
<path d="M963.051 462.5V500H363.051V462.5H963.051ZM375.551 487.5H950.551V475H375.551V487.5Z" fill="white"/>
</svg>
